<svg xmlns="http://www.w3.org/2000/svg" xmlns:xlink="http://www.w3.org/1999/xlink" width="457.69" height="428.591" viewBox="0 0 457.69 428.591"><defs><style>.a{fill:none;}.b{fill:url(#a);}.c{fill:#addae8;}.ac,.d{fill:#fff;}.e{fill:#77afcc;}.f{fill:#ddedf2;}.g{fill:#9bc9d8;}.h{clip-path:url(#b);}.i{fill:url(#c);}.j{fill:#e0e0e0;}.k{opacity:0.528;}.l{fill:#b2b2bd;}.m{fill:#d5d5db;}.n{fill:#fefeff;}.o{fill:#d6d6d8;}.p{clip-path:url(#d);}.q{fill:#ededeb;}.r{fill:url(#e);}.s{fill:#f5ac8e;}.t{fill:#f5ad8c;}.u{fill:#222221;}.v{fill:#f18474;}.w{fill:#2a2a8c;}.x{fill:#f2e7e2;}.y{fill:#4444ad;}.z{opacity:0.39;}.aa{clip-path:url(#f);}.ab{fill:#fde17e;}.ac{stroke:#56bd66;}.ad{clip-path:url(#q);}.ae{fill:#fcbc00;}.af{fill:#39297f;}.ag{opacity:0.1;}.ah{clip-path:url(#v);}.ai{fill:#9797db;}.aj{clip-path:url(#w);}.ak{fill:#3c34b7;}.al{opacity:0.32;}.am{clip-path:url(#z);}.an{fill:#ededed;}.ao{fill:#55cd6c;}.ap{fill:#fefefe;}.aq{stroke:none;}</style><linearGradient id="a" x1="0.5" x2="0.5" y2="1" gradientUnits="objectBoundingBox"><stop offset="0" stop-color="#624c98"/><stop offset="1" stop-color="#36206e"/></linearGradient><clipPath id="b"><rect class="a" width="208.624" height="425.151"/></clipPath><linearGradient id="c" x1="0.5" x2="0.5" y2="1" gradientUnits="objectBoundingBox"><stop offset="0" stop-color="#009a88"/><stop offset="1" stop-color="#075e54"/></linearGradient><clipPath id="d"><rect class="a" width="356.493" height="289.75"/></clipPath><linearGradient id="e" x1="0.294" y1="1.721" x2="1.975" y2="-0.84" gradientUnits="objectBoundingBox"><stop offset="0" stop-color="#55cd6c"/><stop offset="1" stop-color="#2b6736"/></linearGradient><clipPath id="f"><rect class="a" width="15.989" height="14.119"/></clipPath><clipPath id="q"><rect class="a" width="93.513" height="85.756"/></clipPath><clipPath id="v"><rect class="a" width="18.075" height="9.167"/></clipPath><clipPath id="w"><path class="b" d="M99.487,14.2v0M28.846,46.174l25.022,30.8S99.107,46.341,99.487,14.2a10.4,10.4,0,0,1-1.228-.056c-.609-.033-1.438-.065-2.471-.065-9.33,0-35.349,2.667-66.943,32.1" transform="translate(-28.846 -14.077)"/></clipPath><clipPath id="z"><rect class="a" width="13.929" height="14.802"/></clipPath></defs><g transform="translate(-705.31 -126)"><g transform="translate(1066.7 353.633)"><path class="c" d="M132.478,727.865c.423-23.779,8.228-19.523,1.062-31s-9.184-28.643-1.3-41.244.488-39.854,15.28-44.773c19.213-6.394,25.182,19.994,19.383,35.919s18.666,30.782,6.079,47.478c-19.107,25.343,10.36,34.481-11.729,56.943-9.342,9.5-12.2,30.94-12.2,30.94s-17-30.487-16.581-54.264" transform="translate(-127.179 -609.87)"/><path class="d" d="M188.76,648.715s4.139,28.434-.727,38.908c-4.922,10.592-9.353,23.786-5.5,34s7.384,24.45,2.579,38.93.473,34.032.473,34.032-3.43-19.164,1.867-27.326c5.772-8.9,7.252-24.769.253-49.649-3.615-12.851,2.543-17.28,6.164-31.767,4.757-19.034-5.108-37.124-5.108-37.124" transform="translate(-165.557 -634.407)"/><path class="e" d="M6.094,752.217c9.37-21.857,14.99-14.97,12.689-28.3s2.311-29.989,14.375-38.68,15.5-36.716,31.056-35.688c20.205,1.337,15.768,28.026,4.382,40.579s5.662,35.55-12.3,46.258c-27.261,16.253-3.427,35.838-32.362,48.3C11.693,789.95.952,808.726.952,808.726s-4.23-34.651,5.141-56.509" transform="translate(18.049 -634.915)"/><path class="d" d="M102.106,686.035s-6.907,27.892-15.368,35.75c-8.558,7.95-17.644,18.5-17.932,29.4s-2.395,25.427-12.315,37.022S44.08,819.9,44.08,819.9s4.061-19.038,12.047-24.6c8.706-6.058,16.068-20.194,18.983-45.879,1.5-13.263,8.882-15.04,17.7-27.085,11.594-15.83,9.291-36.3,9.291-36.3" transform="translate(-22.228 -657.981)"/><path class="f" d="M179.462,1080.541l-28.956-.15-7.644-43.538,43.612.221Z" transform="translate(-142.794 -879.583)"/></g><g transform="translate(715.7 353.633)"><path class="g" d="M162.713,704.82c-.34-19.134-6.621-15.71-.854-24.944s7.39-23.049,1.043-33.189-.393-32.07-12.3-36.029c-15.461-5.145-20.264,16.089-15.6,28.9s-15.021,24.77-4.892,38.2c15.375,20.393-8.337,27.746,9.438,45.822,7.517,7.646,9.815,24.9,9.815,24.9s13.681-24.532,13.342-43.666" transform="translate(-216.841 -538.966) rotate(-11)"/><path class="c" d="M162.713,704.82c-.34-19.134-6.621-15.71-.854-24.944s7.39-23.049,1.043-33.189-.393-32.07-12.3-36.029c-15.461-5.145-20.264,16.089-15.6,28.9s-15.021,24.77-4.892,38.2c15.375,20.393-8.337,27.746,9.438,45.822,7.517,7.646,9.815,24.9,9.815,24.9s13.681-24.532,13.342-43.666" transform="translate(44.108 -594.154) rotate(9)"/><path class="d" d="M186.223,648.715s-3.331,22.881.585,31.309c3.961,8.523,7.527,19.141,4.427,27.356s-5.941,19.675-2.076,31.327-.381,27.385-.381,27.385,2.76-15.421-1.5-21.989c-4.645-7.159-5.836-19.931-.2-39.952,2.909-10.341-2.046-13.905-4.96-25.563-3.828-15.317,4.111-29.873,4.111-29.873" transform="translate(-259.277 -558.56) rotate(-11)"/><path class="d" d="M186.223,648.715s-3.331,22.881.585,31.309c3.961,8.523,7.527,19.141,4.427,27.356s-5.941,19.675-2.076,31.327-.381,27.385-.381,27.385,2.76-15.421-1.5-21.989c-4.645-7.159-5.836-19.931-.2-39.952,2.909-10.341-2.046-13.905-4.96-25.563-3.828-15.317,4.111-29.873,4.111-29.873" transform="translate(10.933 -627.081) rotate(9)"/><path class="e" d="M58.065,732.159c-7.54-17.588-12.062-12.046-10.21-22.775s-1.86-24.132-11.568-31.125S23.812,648.713,11.3,649.541c-16.259,1.076-12.688,22.552-3.526,32.653s-4.556,28.607,9.9,37.224c21.937,13.079,2.758,28.839,26.042,38.864,9.848,4.24,18.492,19.349,18.492,19.349s3.4-27.883-4.137-45.472" transform="translate(-134.324 -583.425) rotate(-11)"/><path class="d" d="M44.23,686.035S49.788,708.479,56.6,714.8c6.886,6.4,14.2,14.883,14.43,23.66s1.927,20.46,9.91,29.791,9.987,25.5,9.987,25.5-3.268-15.32-9.694-19.792c-7.005-4.874-12.93-16.25-15.275-36.918-1.211-10.672-7.147-12.1-14.247-21.8-9.33-12.739-7.476-29.214-7.476-29.214" transform="translate(-169.672 -602.728) rotate(-11)"/><path class="f" d="M149.874,1080.541l28.956-.15,7.644-43.538-43.612.221Z" transform="translate(-90.242 -879.583)"/></g><g transform="translate(837 126)"><g class="h"><path class="i" d="M175.528,425.15l-144.25-.667A31.42,31.42,0,0,1,0,392.929L1.529,31.29A31.424,31.424,0,0,1,33.1,0L177.347.667a31.423,31.423,0,0,1,31.277,31.554l-1.53,361.64a31.421,31.421,0,0,1-31.566,31.289"/><path class="d" d="M177.032,12.973l-27.968-.129a6.947,6.947,0,0,0-6.82,7.068l-.024,5.073a6.944,6.944,0,0,1-6.82,7.068L80.885,31.8a6.953,6.953,0,0,1-6.761-7.131l.022-5.072a6.955,6.955,0,0,0-6.762-7.131l-9.836-.046L33.07,12.308A22.006,22.006,0,0,0,10.962,34.222L9.47,387.207a22,22,0,0,0,21.9,22.1l143.963.666a22.008,22.008,0,0,0,22.107-21.914l1.492-352.987a22.006,22.006,0,0,0-21.9-22.1"/><path class="j" d="M176.179,174.68v3.909h-.4v-3.552h-.922v-.357Z"/><path class="j" d="M178.194,174.68v3.909h-.4v-3.552h-.922v-.357Z"/><path class="j" d="M179.13,175.931a.3.3,0,0,1,.3-.3.3.3,0,0,1,.3.3.305.305,0,0,1-.3.307.3.3,0,0,1-.3-.307m0,2.379a.3.3,0,0,1,.3-.3.3.3,0,0,1,.3.3.305.305,0,0,1-.3.307.3.3,0,0,1-.3-.307"/><path class="j" d="M182.978,178.232v.357h-2.742V178.3l1.625-1.592c.441-.436.525-.7.525-.966,0-.453-.318-.732-.916-.732a1.326,1.326,0,0,0-1.066.436l-.285-.246a1.755,1.755,0,0,1,1.384-.558c.793,0,1.3.4,1.3,1.055a1.608,1.608,0,0,1-.642,1.223l-1.329,1.307Z"/><path class="j" d="M186.131,177.439c0,.665-.464,1.184-1.419,1.184a2.018,2.018,0,0,1-1.4-.5l.195-.318a1.7,1.7,0,0,0,1.2.452c.664,0,1.016-.324,1.016-.8,0-.5-.313-.816-1.307-.816h-.832l.2-1.96h2.139v.358h-1.787L184,176.283h.5c1.178,0,1.625.464,1.625,1.156"/><path class="j" d="M171.23,329.733v3.909h-.4V330.09h-.922v-.357Z"/><path class="j" d="M173.245,329.733v3.909h-.4V330.09h-.922v-.357Z"/><path class="j" d="M174.181,330.984a.3.3,0,0,1,.3-.3.3.3,0,0,1,.3.3.305.305,0,0,1-.3.307.3.3,0,0,1-.3-.307m0,2.379a.3.3,0,0,1,.3-.3.3.3,0,0,1,.3.3.306.306,0,0,1-.3.308.3.3,0,0,1-.3-.308"/><path class="j" d="M178.682,332.615H177.9v1.027h-.4v-1.027h-2.206v-.291l2.072-2.591h.447l-2,2.525h1.7v-.906h.391v.906h.782Z"/><path class="j" d="M181.678,332.492c0,.664-.464,1.184-1.419,1.184a2.022,2.022,0,0,1-1.4-.5l.195-.319a1.7,1.7,0,0,0,1.2.452c.664,0,1.016-.324,1.016-.8,0-.5-.313-.816-1.307-.816h-.832l.2-1.96h2.139v.358h-1.787l-.134,1.245h.5c1.178,0,1.625.464,1.625,1.156"/><g class="k" transform="translate(23.397 58.407)"><path class="l" d="M438.187,126.267a22,22,0,1,1,36.509,16.52c-1.388-6.263-5.424-11.2-10.552-12.9a9.971,9.971,0,1,0-7.925,0c-5.13,1.706-9.167,6.639-10.553,12.9a21.94,21.94,0,0,1-7.48-16.52" transform="translate(-316.493 -104.272)"/><path class="m" d="M469.051,141.02a9.97,9.97,0,1,1,7.925,0c5.128,1.706,9.164,6.639,10.552,12.9a21.976,21.976,0,0,1-29.03,0c1.387-6.263,5.423-11.2,10.553-12.9" transform="translate(-329.324 -115.407)"/><path class="n" d="M570.681,149.708c0,5.365,3.522,9.715,7.867,9.715H679.7c4.345,0,7.868-4.35,7.868-9.715V123.2c0-5.366-3.523-9.714-7.868-9.714H578.548c-4.344,0-7.867,4.348-7.867,9.714Z" transform="translate(-570.681 -110.093)"/><path class="n" d="M578.84,113.488H549.868l21.043,9.885Z" transform="translate(-454.29 -110.093)"/><path class="l" d="M2.436,0H49.369A2.433,2.433,0,0,1,51.8,2.433v0a2.436,2.436,0,0,1-2.436,2.436H2.435A2.435,2.435,0,0,1,0,2.436v0A2.436,2.436,0,0,1,2.436,0Z" transform="translate(54.24 11.471)"/><path class="o" d="M600.112,167.734c0,.62.946,1.124,2.115,1.124h93.278c1.168,0,2.116-.5,2.116-1.124v-2.623c0-.621-.948-1.123-2.116-1.123H602.227c-1.169,0-2.115.5-2.115,1.123Z" transform="translate(-591.578 -141.993)"/><path class="o" d="M600.112,197.142c0,.62.946,1.124,2.115,1.124h93.278c1.168,0,2.116-.5,2.116-1.124v-2.623c0-.62-.948-1.124-2.116-1.124H602.227c-1.169,0-2.115.5-2.115,1.124Z" transform="translate(-591.578 -160.568)"/><path class="l" d="M812.574,317.416a22,22,0,1,0-36.509,16.52c1.387-6.262,5.424-11.2,10.551-12.9a9.971,9.971,0,1,1,7.925,0c5.13,1.706,9.167,6.64,10.553,12.9a21.938,21.938,0,0,0,7.48-16.52" transform="translate(-768.583 -225.015)"/><path class="m" d="M807.366,332.17a9.97,9.97,0,1,0-7.925,0c-5.128,1.706-9.164,6.64-10.552,12.9a21.976,21.976,0,0,0,29.029,0c-1.386-6.262-5.423-11.2-10.553-12.9" transform="translate(-781.408 -236.151)"/><path class="n" d="M555.07,340.858c0,5.365-3.522,9.715-7.867,9.715H446.055c-4.345,0-7.868-4.35-7.868-9.715V314.353c0-5.365,3.523-9.714,7.868-9.714H547.2c4.344,0,7.867,4.348,7.867,9.714Z" transform="translate(-389.385 -230.838)"/><path class="n" d="M697.675,304.639h28.972l-21.043,9.885Z" transform="translate(-656.54 -230.838)"/><path class="l" d="M2.435,0H49.368A2.435,2.435,0,0,1,51.8,2.435v0A2.435,2.435,0,0,1,49.368,4.87H2.434A2.434,2.434,0,0,1,0,2.437v0A2.435,2.435,0,0,1,2.435,0Z" transform="translate(59.642 81.877)"/><path class="o" d="M558.865,358.885c0,.621-.946,1.124-2.115,1.124H463.472c-1.168,0-2.116-.5-2.116-1.124v-2.622c0-.62.948-1.123,2.116-1.123H556.75c1.169,0,2.115.5,2.115,1.123Z" transform="translate(-401.714 -262.738)"/><path class="o" d="M558.865,388.293c0,.62-.946,1.124-2.115,1.124H463.472c-1.168,0-2.116-.5-2.116-1.124v-2.622c0-.621.948-1.125,2.116-1.125H556.75c1.169,0,2.115.5,2.115,1.125Z" transform="translate(-401.714 -281.313)"/></g></g></g><g transform="matrix(0.998, -0.07, 0.07, 0.998, 743.729, 241.612)"><g class="p"><path class="q" d="M54.545,190.391c-12.591-19.875-1.246-47.3,16.894-62.287s41.482-21.792,62.313-32.73c24.957-13.1,47.581-32.693,75.44-36.974,22.48-3.452,46.15,4.15,63.267,19.125s27.686,36.875,30.045,59.5c4.678,44.863-25.325,90.968-68.241,104.857s-94.243-5.89-116.739-44.987" transform="translate(16.251 19.014)"/><path class="r" d="M72.972,167.625S92.679,88.791,173.653,99.5,250.7,179.8,250.7,179.8l-43.626,3.247,1.35,49.164c-24.274,2.735-61.236-5.095-105.347-11.8l1.6-35.65Z" transform="translate(24.098 32.529)"/><path class="s" d="M217.494,158.516s-.023.52-.073,1.466c-.507,9.462-3.941,61.482-18.158,60.321-15.638-1.276-26.365-8.516-25.47-57.075l43.678-4.192" transform="translate(57.375 52.347)"/><path class="s" d="M179.922,217.8s29.769-67.113,45.5-84.958l18.216,16s-27.684,82.488-45.857,79.906S179.922,217.8,179.922,217.8" transform="translate(59.416 43.869)"/><path class="s" d="M77.237,151.323,66.456,183.382l35.626,21.507,4.745-37.571Z" transform="translate(21.946 49.972)"/><path class="t" d="M134.951,110.019l-2.867,20.929s26.236,15.589,41.783-4.668l11.658-78.361c-15.67-16.363-32.5-19-50.574-6.821,0,0-26.111,60.691,0,68.922" transform="translate(40.733 11.067)"/><path class="u" d="M131.7,55.9a8.506,8.506,0,0,1,3.315-3.758,3.229,3.229,0,0,1,4.922,2.291c.07.325.617.343.672,0,.372-2.293-1.963-3.993-4.084-3.838-2.805.2-4.571,2.6-5.467,5.034-.141.378.45.615.642.271" transform="translate(43.273 16.705)"/><path class="v" d="M144.5,68.92c.109.094-.039.5-.464,1.159a5.678,5.678,0,0,1-2.655,2.255,4.054,4.054,0,0,1-2.7.029,3.213,3.213,0,0,1-1.39-.972,3.335,3.335,0,0,1-.685-1.672,7.811,7.811,0,0,1,.468-3.133c.273-.939.592-1.9.931-2.88,2.756-7.867,6.72-13.4,7.2-13.092.532.314-2.5,6.183-5.168,13.809-.331.954-.657,1.884-.948,2.791a6.776,6.776,0,0,0-.508,2.307,1.294,1.294,0,0,0,.768,1.188,2.654,2.654,0,0,0,1.6.168,6.682,6.682,0,0,0,2.474-1.367c.589-.451.963-.688,1.077-.588" transform="translate(45.1 16.71)"/><path class="v" d="M138.336,73.015c3.471.628,8.245-.361,10.067-3.765a.42.42,0,0,0-.656-.507,15.616,15.616,0,0,1-3.945,2.835,9.8,9.8,0,0,1-5.248.645c-.513-.081-.742.7-.218.791" transform="translate(45.585 22.666)"/><path class="v" d="M144.7,68.522a2.159,2.159,0,0,1,1.79.718,4.712,4.712,0,0,1,.793,1.732.355.355,0,0,0,.639.082,2.2,2.2,0,0,0-.666-2.579,2.955,2.955,0,0,0-2.667-.782.424.424,0,0,0,.112.829" transform="translate(47.649 22.334)"/><path class="u" d="M152.815,57.745a4.556,4.556,0,0,1,4.835-2.5c2.082.432,3.15,2.143,3.557,4.1.1.476.8.346.822-.112a5.17,5.17,0,0,0-4.161-5.05,5.283,5.283,0,0,0-5.716,3.179c-.213.443.448.833.662.387" transform="translate(50.232 17.862)"/><path class="w" d="M134.444,44.942a75.905,75.905,0,0,1,12.673-5.415,25.408,25.408,0,0,1,13.619-.536c5.056,1.371,9.3,4.76,13.147,8.319,2.437,2.257,4.871,4.776,5.732,7.983,1.022,3.806-.355,7.787-1.481,11.564a93.959,93.959,0,0,0-2.75,12.079,11.034,11.034,0,0,0-.11,4.027,4.048,4.048,0,0,0,2.4,3.048l2.65-.821a84.542,84.542,0,0,0,13.5-23.7c1.421-3.828,2.575-7.935,1.876-11.959s-3.742-7.9-7.8-8.33c-2.623-.279-5.3.859-7.871.273-2.841-.65-4.769-3.187-6.719-5.354A38.678,38.678,0,0,0,146.388,23.49,23.408,23.408,0,0,0,134.8,25.637a13.284,13.284,0,0,0-7.2,8.972c-.738,3.9,1.077,8.334,4.658,10.051Z" transform="translate(42.084 7.748)"/><path class="t" d="M167.038,64.9a4.69,4.69,0,0,1,6.029-1.246,5.775,5.775,0,0,1,2.631,5.8,7.573,7.573,0,0,1-3.852,5.285c-2.1,1.177-4.9,1.389-6.809-.073" transform="translate(54.5 20.824)"/><path class="w" d="M132.551,46.9c1.672.15,3.308-.531,4.956-.75a30.157,30.157,0,0,1,5.469,0,1.484,1.484,0,0,0,.392-2.9c-3.266-.73-9.092-.6-11.4,2.257a.83.83,0,0,0,.579,1.4" transform="translate(43.51 14.158)"/><path class="w" d="M155.8,47.361a13.128,13.128,0,0,1,4.067,2.114,40.053,40.053,0,0,1,3.339,3,1.564,1.564,0,0,0,2.445-1.886,10.093,10.093,0,0,0-4.3-3.649,13.1,13.1,0,0,0-2.514-.906,22.321,22.321,0,0,0-2.831-.182c-.854-.1-1.05,1.341-.2,1.51" transform="translate(51.272 15.14)"/><path class="v" d="M172.792,67.457A2.344,2.344,0,0,0,170.1,64.8c-1.962.173-3.01,1.99-3.377,3.73a.557.557,0,0,0,.81.62,2.078,2.078,0,0,1,3.142.708c.591,1.4-.609,2.373-1.949,2.15-.539-.09-.988.684-.4.963a2.628,2.628,0,0,0,3.629-2.8c-.342-2.446-3.07-3.09-4.974-1.967l.807.62a3.8,3.8,0,0,1,1.51-2.575,1.814,1.814,0,0,1,2.762,1.209c.1.343.661.379.733,0" transform="translate(55.055 21.396)"/><path class="u" d="M134.553,50.745a4.044,4.044,0,0,0-1.129,2.2,2.849,2.849,0,0,0,.693,2.332,2.212,2.212,0,0,0,2.3.592,2.388,2.388,0,0,0,1.313-1.33,2.772,2.772,0,0,0-.374-2.811,2.337,2.337,0,0,0-2.7-.639" transform="translate(44.052 16.758)"/><path class="u" d="M155.266,54.25a4.043,4.043,0,0,0-1.128,2.2,2.854,2.854,0,0,0,.692,2.333,2.215,2.215,0,0,0,2.3.592,2.388,2.388,0,0,0,1.313-1.33,2.772,2.772,0,0,0-.374-2.811,2.338,2.338,0,0,0-2.7-.64" transform="translate(50.892 17.915)"/><path class="v" d="M209.568,151.223c.527.351-6.527,11.529-13.973,25.982-7.495,14.436-12.535,26.653-13.127,26.424-.265-.1.657-3.3,2.575-8.31a200.168,200.168,0,0,1,19.231-37.191c2.982-4.463,5.056-7.062,5.293-6.905" transform="translate(60.242 49.937)"/><path class="v" d="M189.7,177.386c.166.584-1.627,1.587-3.7,2.872-2.088,1.262-3.8,2.405-4.241,1.991-.435-.384.748-2.382,3.117-3.827s4.68-1.6,4.823-1.036" transform="translate(59.992 58.478)"/><path class="s" d="M239.79,145.281c-1.913,2.859-5.657,9.86-5.657,9.86L208.706,149.9l9.366-18.382-2.194-17.542c3.517-2.076,7.471,11.578,7.471,11.578s15.419-7.143,16.873-2.366a3.924,3.924,0,0,1-1.121,3.906s3.573-1.314,4.342.623c.646,1.628-1.732,3.6-1.732,3.6a3.457,3.457,0,0,1,4.032,2.351c.841,2.667-5.953,11.613-5.953,11.613" transform="translate(68.922 37.568)"/><path class="v" d="M234.08,124.2c.088.148-.8.9-2.364,1.942a20.2,20.2,0,0,1-6.825,3.009,3.2,3.2,0,0,1-2.468-.466,2.294,2.294,0,0,1-.8-1.07,1.862,1.862,0,0,1,.051-1.352,4.305,4.305,0,0,1,1.3-1.514,12.118,12.118,0,0,1,1.28-.926c1.648-1.022,2.833-1.258,2.889-1.108.078.178-.952.71-2.356,1.849-.35.286-.721.611-1.1.982a3.675,3.675,0,0,0-.914,1.155.662.662,0,0,0,0,.5,1.087,1.087,0,0,0,.39.464,2.026,2.026,0,0,0,1.518.213,28.71,28.71,0,0,0,6.578-2.527c1.659-.823,2.722-1.306,2.816-1.149" transform="translate(73.152 40.512)"/><path class="v" d="M235.568,127.127c.1.145-.605.821-1.866,1.757a19.887,19.887,0,0,1-5.469,2.924,5.811,5.811,0,0,1-1.893.341,2.647,2.647,0,0,1-1.9-.718,2.247,2.247,0,0,1-.62-1.767,2.919,2.919,0,0,1,.492-1.423,4.308,4.308,0,0,1,1.485-1.306c.4-.214.64-.283.693-.214s-.093.282-.379.608a6.23,6.23,0,0,0-1.01,1.374,1.637,1.637,0,0,0,.166,1.874c.462.443,1.534.371,2.565,0a34.841,34.841,0,0,0,5.383-2.469c1.366-.726,2.253-1.136,2.352-.984" transform="translate(73.91 41.839)"/><path class="v" d="M237.264,131.113c.121.108-.285.855-1.32,1.732a9.52,9.52,0,0,1-4.845,2.1,4.132,4.132,0,0,1-1.676-.154,2.381,2.381,0,0,1-1.361-1.1,2.7,2.7,0,0,1,.188-2.68,4.206,4.206,0,0,1,1.14-1.179c.309-.212.511-.29.573-.227s-.02.263-.209.573a8.6,8.6,0,0,0-.7,1.253,1.9,1.9,0,0,0,.031,1.663,1.948,1.948,0,0,0,1.888.564,12.322,12.322,0,0,0,4.443-1.564c1.076-.617,1.705-1.117,1.844-.984" transform="translate(75.223 42.794)"/><path class="v" d="M219.167,127.429a8.729,8.729,0,0,1,5.681,2.782c1.446,1.624,1.764,3.419,2.333,5.421.129.448.923.531.994,0,.681-5.036-4.478-8.883-9.008-9.039-.547-.02-.525.784,0,.837" transform="translate(72.243 41.805)"/><path class="x" d="M136.037,53.069a5.737,5.737,0,0,0,1.518-.012.277.277,0,0,0,0-.529,5.8,5.8,0,0,0-1.518,0,.27.27,0,0,0,0,.539" transform="translate(44.838 17.328)"/><path class="x" d="M156.726,56.54a8.967,8.967,0,0,0,1.443.129c.33-.039.482-.571.086-.64a9.646,9.646,0,0,0-1.53.035.238.238,0,0,0,0,.476" transform="translate(51.68 18.493)"/><path class="y" d="M165.545,76.593a28.464,28.464,0,0,1,7.939-15.855c3.162-3.143,6.724-5.68,8.216-10.051.293-.858-1.031-1.2-1.345-.371-2.067,5.45-7.526,8.33-10.808,12.948a26.687,26.687,0,0,0-4.7,13.236c-.037.4.637.491.7.093" transform="translate(54.437 16.46)"/><path class="y" d="M135.679,24.723c-4.246,8.406,6.694,12.786,13.035,13.845.627.1.907-.814.267-.971-5.947-1.457-15.911-4.371-13.076-12.778a.124.124,0,0,0-.226-.1" transform="translate(44.491 8.145)"/><path class="y" d="M165.533,80.113c-2.172-9.513,2.811-16.939,6.347-25.333,2.26-5.37,3.632-11.31,1.43-16.921-.277-.706-1.407-.434-1.165.322,4.841,15.111-13.079,27.3-7.485,42.172a.454.454,0,0,0,.874-.241" transform="translate(54.014 12.367)"/><path class="y" d="M168.479,46.8a20.619,20.619,0,0,0-7.1-13.457c-4.475-3.936-11.589-4.253-15.225-8.913-.376-.483-1.148.138-.839.648,2.484,4.1,7.6,4.428,11.5,6.547,5.966,3.244,9.328,8.878,11.078,15.254.086.314.616.265.585-.08" transform="translate(47.964 8.01)"/><g class="z" transform="translate(195.782 78.669)"><g class="aa"><path class="v" d="M162.8,68.678a7.118,7.118,0,0,1-3.8,3.9,7.5,7.5,0,0,1-5.536.279c-4.309-1.092-7.038-4.983-6.1-8.694s5.193-5.828,9.5-4.737a9.846,9.846,0,0,1,5.264,3.87,5.931,5.931,0,0,1,.67,5.383" transform="translate(-147.179 -59.139)"/></g></g><path class="q" d="M75.925,0C55.667,21.349,37.713,45.406,26.915,72.784S12.9,131.176,21.862,159.208c10.621,33.211,37.433,59.477,68.236,75.814s65.5,23.777,99.994,28.9c3.194.474,6.691.873,9.442-.817,5.7-3.5,3.179-13.086-2.594-16.458s-12.9-2.813-19.568-3.352a56.712,56.712,0,0,1-42.119-24.929c-4.588-6.958-8.217-15.5-15.9-18.723-8.972-3.761-19.1,1.543-28.82,1.1-16.271-.738-27.068-16.605-35.169-30.736C47.9,157,40.3,143.587,38.137,128.743c-1.685-11.572.048-23.335,1.78-34.9C44.677,62.039,55.65,25.566,75.925,0" transform="translate(5.501)"/><path class="q" d="M123.818,221.7a8,8,0,1,0-.153-.029" transform="translate(38.73 67.924)"/><path class="b" d="M162.865,209.692c-18.456-2.256-37.535,6.352-53.491-2.4-5.24-2.875-9.058-7.953-14.438-10.558-8.619-4.173-18.788-1.077-28.365-1.089a43.747,43.747,0,0,1-39.118-25.681c-1.926-4.432-3.014-9.812-.472-13.925,2.845-4.6,9.373-5.753,14.482-3.973s9.088,5.788,12.718,9.8,7.224,8.262,12.009,10.787c10.933,5.767,25.376,1.238,35.91,7.7,7.617,4.676,11.367,14.1,19.056,18.658,9.358,5.548,41.592-.762,41.709,10.679" transform="translate(8.418 49.952)"/><path class="i" d="M51.31,15.337c-.724,5.986-7,9.473-12.633,11.628s-12.072,4.6-14.2,10.244c-1.341,3.548-.617,7.7-2.347,11.078-2.385,4.654-8.765,6.527-10.382,11.5-1.5,4.612,2.464,9.767,7.244,10.583s9.64-1.864,12.647-5.669,4.475-8.58,5.634-13.289C38.4,46.83,39.326,42.1,41.716,38.028c1.745-2.974,4.206-5.477,5.953-8.45S52.851,18.42,51.31,15.337" transform="translate(3.773 5.065)"/><path class="ab" d="M2.271,82.578c-.487.471-3.624,5.313-1.595,9.115A8.147,8.147,0,0,0,11.8,94.6a8.076,8.076,0,0,0,1.9-11.32,8.009,8.009,0,0,0-11.431-.7" transform="translate(0 26.586)"/><path class="r" d="M34.871,73.735c3.181-1.854,6.805.367,8.29,3.737s.843,7.278-.194,10.811S40.507,95.319,40.495,99c-.036,9.615,9.092,16.508,12.925,25.326,1.338,3.078,2.047,6.453,3.86,9.276,2.446,3.811,6.571,6.136,10.03,9.06s6.506,7.262,5.486,11.674c-1.171,5.059-7.436,7.564-12.482,6.332s-8.98-5.115-12.313-9.1c-8.931-10.684-15.553-23.439-18.191-37.112S28.657,86.2,34.871,73.735" transform="translate(9.433 24.128)"/><path class="b" d="M74.831,154.631a8.213,8.213,0,0,0-3.228,6.533,6.7,6.7,0,0,0,2.707,5.144,10.343,10.343,0,0,0,5.6,1.962c2.837.2,5.958-.617,7.638-2.913a7.059,7.059,0,0,0-.165-8,9.772,9.772,0,0,0-7.314-3.852,9.051,9.051,0,0,0-4.8.874,6.069,6.069,0,0,0-3.109,3.654" transform="translate(23.646 50.683)"/><path class="i" d="M202.72,199.683c6.563,4.653,35.417-17,46.678-33.752s14.526-39.89,4.153-57.2c-2.351-3.92-5.341-7.5-6.99-11.766s-1.642-9.611,1.567-12.867c3.509-3.561,9.614-3.23,13.877-.617s7.118,6.953,9.832,11.153c5.94,9.195,11.945,18.53,15.262,28.963s3.671,22.276-1.477,31.938c-4.869,9.135-13.877,15.162-21.169,22.509-6.249,6.3-11.316,13.676-17.461,20.073s-13.771,11.959-22.565,13.131-18.742-3.2-21.707-11.562" transform="translate(66.945 26.905)"/><path class="b" d="M189.154,58.26c3.713-2.107,8.439-.907,12.222,1.068s7.267,4.694,11.413,5.713,9.382-.4,10.787-4.435c1.012-2.9-.339-6.207-2.534-8.359s-5.1-3.388-7.936-4.579c-4.692-1.971-9.638-3.984-14.7-3.441s-10.128,4.619-9.872,9.7" transform="translate(62.258 14.576)"/><path class="r" d="M235.415,58.57a10.436,10.436,0,0,0,5.522,12.58A10.1,10.1,0,0,0,253.65,66.2a9.786,9.786,0,0,0-5.05-12.568c-4.678-1.869-11.742.112-13.185,4.939" transform="translate(77.575 17.481)"/><path class="i" d="M76.354,140.249c3.061-7.222,6.444-13.955,8.841-21.458,2.486-7.775,4.338-15.726,7.358-23.331,5.159-12.99,13.3-23.979,26.043-30.183,2.893-1.409.862-6.321-2.208-5.238-13.172,4.647-22.38,16.676-28.129,28.927a155.3,155.3,0,0,0-7.949,22.212c-1.28,4.339-2.363,8.748-3.471,13.136-1.195,4.729-1.777,9.534-3.694,14.059-.922,2.178,2.279,4.073,3.21,1.876" transform="translate(24.1 19.776)"/></g></g><g class="ac" transform="translate(861 488)"><rect class="aq" width="162" height="32" rx="16"/><rect class="a" x="0.5" y="0.5" width="161" height="31" rx="15.5"/></g><path class="r" d="M179.371,377.416a8.122,8.122,0,1,1-8.122-8.121,8.123,8.123,0,0,1,8.122,8.121" transform="translate(837 126)"/><path class="d" d="M171.039,382.431h-.019a.252.252,0,0,1-.223-.184l-1.039-3.843-3.6-1.277a.246.246,0,0,1-.167-.234.249.249,0,0,1,.166-.235l8.482-3.031a.251.251,0,0,1,.313.338l-3.68,8.319a.25.25,0,0,1-.228.148m-4.057-5.541,3.066,1.086a.248.248,0,0,1,.159.17l.888,3.288,3.159-7.14Z" transform="translate(837 126)"/><path class="i" d="M39.712,380.7a1.768,1.768,0,1,1-2.717-2.262l3.656-4.39a1.145,1.145,0,1,1,1.759,1.465l-3.1,3.722,0,0a.65.65,0,0,1-.97-.819l2.388-2.867-.328-.274-2.282,2.739v0l-.111.133.014.012a1.056,1.056,0,0,0,1.608,1.339l.007.006.061-.074c.018-.019.039-.035.057-.056l-.006-.005,3.022-3.628,0,0a1.57,1.57,0,0,0-2.412-2.009v0l-3.818,4.585.007.007a2.194,2.194,0,0,0,3.358,2.8l.008.007,3.077-3.7-.328-.273Z" transform="translate(837 126)"/><g transform="matrix(0.996, -0.087, 0.087, 0.996, 794.441, 188.089)"><g class="ad"><g class="ad"><path class="ae" d="M35.883,94.16a17.465,17.465,0,0,0-25.628,4.23l4.619-.409a12.511,12.511,0,0,0-3.207,4.41c-.6,1.733-.256,3.939,1.279,4.941a5.547,5.547,0,0,0,4.3.3,10.72,10.72,0,0,1,4.361-.557c1.452.269,2.832,1.658,2.458,3.087-.62,2.365-4.915,2.269-5.235,4.692-.185,1.4,1.227,2.492,2.574,2.908,4.817,1.488,10.1-1.8,12.466-6.247s2.48-9.73,2.276-14.768" transform="translate(-4.377 -38.556)"/><path class="ae" d="M16.412,134.915c.566-.959-.639-2.022-1.486-2.18a2.1,2.1,0,0,0-2.453,1.775,1.982,1.982,0,0,0,2.174,2.112,2.073,2.073,0,0,0,1.758-2.617.974.974,0,0,0-.784-.616,1.045,1.045,0,0,0-1.153,1.089c0,.01-.088.177-.017.092a.054.054,0,0,1,.054.012c.049.033.017.021-.095-.035.009-.007.054.033.05.038a.354.354,0,0,1,.345-.09c.395.1.637.5,1.008.653a.471.471,0,0,0,.6-.234" transform="translate(-5.318 -56.635)"/><path class="ae" d="M27.261,144.8a.366.366,0,0,0,.725.105.366.366,0,0,0-.725-.105" transform="translate(-11.633 -61.671)"/><path class="b" d="M74.467,104.719s4.906,27.579-24.391,25.632c0,0,14.037-6.2,12.139-15.236Z" transform="translate(-21.372 -44.693)"/><path class="q" d="M99.919,14.395S69.57,9.556,29.893,46.961L54.315,77.026s45.23-30.486,45.6-62.631" transform="translate(-12.758 -6.056)"/><path class="af" d="M52.392,100.875,27.37,70.072l-1.982,1.2,25.637,31.366Z" transform="translate(-10.835 -29.906)"/><path class="b" d="M49.322,79.3,37.849,86.033,21.589,102.52s13.12-6.49,19.179-11.758c1.884-1.639,6.913-7.116,8.555-11.459" transform="translate(-9.214 -33.846)"/><path class="b" d="M28.247,53.773S.823,45.566,0,74.915c0,0,7.491-13.39,16.312-10.649Z" transform="translate(0 -22.499)"/><g class="ag" transform="translate(22.033 45.458)"><g class="ah"><path class="ai" d="M56.514,79.3s-16.109.3-18.075,1.478l6.246,7.69Z" transform="translate(-38.439 -79.303)"/></g></g></g><g transform="translate(16.535 8.069)"><g class="aj"><path class="b" d="M114.329,10.543s7.056,14.384,15.173,19.675l12.8-12.188L132.97,0,114.391,10.111" transform="translate(-65.329 -8.069)"/></g></g><g class="ad"><path class="ak" d="M97.246,39.354c-5.2-.628-8.26,4.275-8.072,8.994a7.979,7.979,0,0,0,9.019,7.339,8.361,8.361,0,0,0,7.065-9.625c-.8-4.851-5.871-8.929-10.855-7.215a1.222,1.222,0,0,0,.323,2.389c3.125.1,5.793.663,7.488,3.573,1.811,3.108-.123,7.051-3.233,8.26-8.6,3.341-10.791-12.575-1.735-12.761a.477.477,0,0,0,0-.954" transform="translate(-38.055 -16.409)"/><g class="al" transform="translate(52.111 23.38)"><g class="am"><path class="ak" d="M97.99,40.829c-2.608-.347-5.122,1.543-6.253,3.918a8.275,8.275,0,0,0-.595,5.526,7.229,7.229,0,0,0,3.278,4.444,7.134,7.134,0,0,0,8.651-1.44,7.57,7.57,0,0,0,.647-8.829,8.068,8.068,0,0,0-8.247-3.431" transform="translate(-90.91 -40.788)"/></g></g></g></g></g><g transform="translate(916.647 396.575)"><path class="an" d="M0,50.425,3.478,37.819A25.078,25.078,0,0,1,25.126,0a25.326,25.326,0,0,1,25.3,25.039,25.626,25.626,0,0,1-25.3,25.387,25.309,25.309,0,0,1-12.259-3.478Z"/><path class="ao" d="M53.354,82.218l.782.435A20.642,20.642,0,0,0,65,85.869,21.077,21.077,0,0,0,85.869,64.83a20.866,20.866,0,0,0-41.731,0,21.061,21.061,0,0,0,3.217,11.215l.522.782-2,7.3Z" transform="translate(-39.791 -39.791)"/><path class="ap" d="M135.366,135.149l-1.652-.087a1.974,1.974,0,0,0-1.391.522,7.2,7.2,0,0,0-2.434,3.738c-.609,2.608.348,5.738,2.608,8.868a26.347,26.347,0,0,0,14.258,10.346,7.063,7.063,0,0,0,5.912-.7,5.13,5.13,0,0,0,2.26-3.3l.261-1.217a.874.874,0,0,0-.435-.956l-5.477-2.521a.83.83,0,0,0-1.043.261l-2.174,2.782a.676.676,0,0,1-.7.174,16.9,16.9,0,0,1-9.129-7.825.656.656,0,0,1,.087-.7l2.087-2.347a1.071,1.071,0,0,0,.174-.869l-2.521-5.651a.758.758,0,0,0-.7-.522" transform="translate(-116.935 -121.76)"/></g></g></svg>